<svg xmlns="http://www.w3.org/2000/svg" width="512" height="512" viewBox="0 0 512 512" style="overflow: visible;" data-bbox="52.764 60.269 406.473 391.462"><g transform="matrix(1.4541558019537846, 0, 0, 1.4541558019537846, 84.4283906860631, 150.619584648587)" data-uid="o_f9dg4j457_8"><svg id="OBJECTS" xmlns="http://www.w3.org/2000/svg" viewBox="0 0 235.99 163.11" width="235.99" height="163.11" data-uid="o_f9dg4j457_9"><path class="cls-4" d="m117.99 25.82C63.64 27.09 16.21 55.48 6.38 61.75c.99 2.54 2.26 5.22 3.77 7.98 10.68-7.56 49.93-32.28 107.71-34.04h.27c57.77 1.76 97.02 26.49 107.71 34.04 1.51-2.76 2.78-5.43 3.77-7.98-9.83-6.27-57.26-34.66-111.61-35.93Z" fill="#f39300" data-uid="o_f9dg4j457_10"></path><path class="cls-2" d="m117.99 78.35c-17.08.54-31.02 3.45-41.48 6.66-.4 1.13-1.38 4.12-1.95 8.23-.98 7.11-.69 17.56 6.01 27.48.4.61.58 1.35.46 2.08-.12.72-.23 2.05-.18 3.57.07 2.31.52 5.01 1.92 6.49 1.45 1.52 3.48 1.6 6.19 1.56 1.92-.05 3.72-.08 5.17.99 1.56 1.14 2.07 3.37 3.09 8.29.02.1.05.23.07.35 2.54-1.48 5.01-2.9 7.36-3.85 2.67-1.08 5.19-1.57 7.54-.87 4.82 1.45.6 8.04-7.1 13.19 2.5-.76 5.08-1.53 7.06.13.48.4.96.89 1.47 1.41 1.21 1.23 2.69 2.74 4.38 3.23 1.69-.49 3.17-2 4.38-3.23.51-.52.98-1 1.47-1.41 1.98-1.66 4.56-.89 7.06-.13-7.7-5.15-11.92-11.74-7.1-13.19 2.34-.7 4.87-.22 7.54.87 2.35.96 4.82 2.38 7.36 3.85.02-.12.05-.24.07-.35 1.03-4.92 1.53-7.14 3.09-8.29 1.45-1.07 3.25-1.04 5.17-.99 2.7.05 4.73-.03 6.19-1.56 1.4-1.48 1.85-4.18 1.92-6.49.05-1.51-.07-2.85-.18-3.57-.12-.73.06-1.47.46-2.08 6.7-9.91 6.99-20.37 6.01-27.48-.57-4.11-1.55-7.1-1.95-8.23-10.47-3.21-24.41-6.12-41.48-6.66Zm-35.92 17.77c.16-.51.45-1.08.92-1.77.84-1.19 2.39-2.8 4.22-4.51 4.18-3.85 9.82-8.1 11.72-8.42 2.74-.47 6.84 1.62 8.22 4.28.3.6.42 1.08.38 1.48-.05 1.4-1.64 1.7-1.64 1.7-9.99-1.59-17.97 5.59-21.03 8.85-1.18 1.26-3.33.06-2.8-1.6Zm69.04 1.6c-3.06-3.27-11.03-10.44-21.03-8.85 0 0-1.59-.3-1.64-1.7-.03-.39.08-.88.38-1.48 1.37-2.67 5.48-4.75 8.22-4.28 1.9.32 7.55 4.57 11.72 8.42 1.83 1.71 3.38 3.32 4.22 4.51.47.68.76 1.26.92 1.77.53 1.66-1.63 2.86-2.8 1.6Zm-53.65 27.82c-1.21-.17-9.23-2.01-10.24-11.03-1-9.01 14.43-20.98 22.5-17.52 8.08 3.46 6.91 20.58 3.53 23-4.11 2.97-11.76 6.13-15.8 5.55Zm25.28-5.55c-3.38-2.42-4.55-19.54 3.53-23 8.08-3.46 23.51 8.51 22.5 17.52-1 9.02-9.02 10.86-10.24 11.03-4.04.58-11.69-2.58-15.8-5.55Zm-4.74 15.33c-2.54 1.1-6.4 2.31-7.6.23-1.67-2.91 4.74-11.54 7.6-12.98 2.86 1.44 9.27 10.07 7.6 12.98-1.2 2.08-5.06.87-7.6-.23Z" fill="#f9e8cc" data-uid="o_f9dg4j457_11"></path><path class="cls-5" d="m117.99 5.77c-17.89.61-33.61 6.06-37.51 7.52l-7.43 13.37c13.92-3.66 29.11-6.24 44.87-6.61.02 0 .04 0 .07 0s.04 0 .07 0c15.76.36 30.95 2.94 44.87 6.61l-7.43-13.37c-3.9-1.46-19.62-6.9-37.51-7.52Z" fill="#f34a23" data-uid="o_f9dg4j457_12"></path><path class="cls-5" d="m117.99 44.92c-55.69 1.73-94.11 26.44-103.01 32.73.02.02.03.06.06.08 4 5.95 8.37 11.27 11.86 15.26-.01-.14-.03-.27-.03-.4l.87-16.48c.06-.96.59-1.72 1.33-2.13.73-.42 1.66-.47 2.5-.02l14.54 7.8c1.81.97 1.83 3.55.05 4.56l-15.41 8.68c-.59.33-1.22.39-1.8.27 1.89 2.08 3.38 3.6 4.17 4.4 13.37 2.16 28.93 1.66 35.23 1.33-.03-.88-.03-1.74-.02-2.59.08-4.45.77-8.3 1.48-11.12-10.17 3.73-15.59 7.21-15.71 7.29-1.33.87-3.12.5-3.99-.83-.88-1.33-.51-3.12.82-3.99.2-.13 1.33-.85 3.35-1.95.06-.03.09-.05.09-.05h.01c8.02-4.32 29.79-14.1 63.54-15.15h.18c33.75 1.05 55.52 10.84 63.54 15.15h.01s.03.01.09.05c2.02 1.1 3.15 1.82 3.35 1.95 1.33.88 1.7 2.67.82 3.99-.88 1.33-2.67 1.7-3.99.83-.12-.08-5.54-3.57-15.71-7.29.7 2.83 1.4 6.67 1.48 11.12.01.84.01 1.71-.02 2.59 6.3.33 21.86.83 35.23-1.33.78-.8 2.27-2.32 4.17-4.4-.58.13-1.21.07-1.8-.27l-15.41-8.68c-1.79-1-1.77-3.59.05-4.56l14.54-7.8c.84-.45 1.78-.39 2.5.02.74.42 1.27 1.18 1.33 2.13l.87 16.48c0 .14-.02.27-.03.4 3.5-3.98 7.86-9.3 11.86-15.26.02-.02.03-.06.06-.08-8.91-6.29-47.32-31-103.01-32.73Zm-53.4 17.29l-2.58 16.31c-.15.95-.76 1.65-1.53 1.98-.77.33-1.7.3-2.49-.24l-13.65-9.28c-1.7-1.15-1.44-3.73.43-4.54l16.24-7.03c1.88-.81 3.92.77 3.6 2.79Zm110.41-2.79l16.24 7.03c1.87.81 2.12 3.38.43 4.54l-13.65 9.28c-.8.54-1.72.58-2.49.24-.77-.33-1.38-1.04-1.53-1.98l-2.58-16.31c-.32-2.02 1.72-3.6 3.6-2.79Zm-85.65 12.43l-17.08 4.59c-1.97.53-3.76-1.33-3.15-3.29l4.92-15.75c.29-.91.99-1.52 1.81-1.74.81-.21 1.73-.05 2.43.6l12.15 11.17c1.51 1.38.9 3.89-1.08 4.42Zm56.22-4.42l12.15-11.17c.7-.65 1.63-.81 2.43-.6.82.22 1.52.83 1.81 1.74l4.92 15.75c.61 1.96-1.18 3.82-3.15 3.29l-17.08-4.59c-1.98-.53-2.6-3.03-1.08-4.42Zm-46.45 1.29c-.83.15-1.73-.1-2.38-.81l-11.11-12.2c-1.38-1.52-.55-3.96 1.47-4.32l17.43-3.06c2.02-.35 3.64 1.66 2.85 3.55l-6.3 15.26c-.37.89-1.12 1.42-1.95 1.57Zm35.82-1.57l-6.3-15.26c-.78-1.89.83-3.9 2.85-3.55l17.43 3.06c2.02.36 2.85 2.79 1.47 4.32l-11.11 12.2c-.65.7-1.55.96-2.38.81-.83-.15-1.58-.68-1.95-1.57Zm-25.78.95c-2.04 0-3.29-2.26-2.19-3.99l8.85-13.93c.51-.81 1.35-1.21 2.19-1.21.84 0 1.68.4 2.19 1.21l8.85 13.93c1.1 1.73-.15 3.99-2.19 3.99h-17.69Z" fill="#f34a23" data-uid="o_f9dg4j457_13"></path><path class="cls-7" d="m117.99 122.57c-2.85 1.41-9.27 10.07-7.6 12.98 1.19 2.08 5.06.86 7.6-.23 2.53 1.09 6.4 2.3 7.6.23 1.68-2.91-4.74-11.57-7.6-12.98Z" fill="#1a243a" data-uid="o_f9dg4j457_14"></path><path class="cls-7" d="m97.46 125.55c4.04.58 11.68-2.6 15.8-5.55 3.38-2.43 4.54-19.55-3.53-23.01-8.08-3.46-23.51 8.51-22.5 17.53 1.01 9.02 9.02 10.86 10.24 11.04Z" fill="#1a243a" data-uid="o_f9dg4j457_15"></path><path class="cls-7" d="m138.53 125.55c-4.04.58-11.68-2.6-15.8-5.55-3.38-2.43-4.54-19.55 3.53-23.01 8.08-3.46 23.51 8.51 22.5 17.53-1.01 9.02-9.02 10.86-10.24 11.04Z" fill="#1a243a" data-uid="o_f9dg4j457_16"></path><path class="cls-7" d="m105.9 88.88s2.63-.5 1.26-3.17c-1.37-2.67-5.48-4.76-8.22-4.29s-13.2 9.05-15.94 12.95c-.47.67-.77 1.26-.93 1.77-.53 1.65 1.62 2.86 2.81 1.59 3.05-3.26 11.03-10.44 21.02-8.84Z" fill="#1a243a" data-uid="o_f9dg4j457_17"></path><path class="cls-7" d="m130.09 88.88s-2.63-.5-1.26-3.17c1.37-2.67 5.48-4.76 8.22-4.29 2.74.47 13.2 9.05 15.94 12.95.47.67.77 1.26.93 1.77.53 1.65-1.62 2.86-2.81 1.59-3.05-3.26-11.03-10.44-21.02-8.84Z" fill="#1a243a" data-uid="o_f9dg4j457_18"></path><path class="cls-7" d="m117.99 20.05s-.04 0-.07 0c-15.76.36-30.95 2.94-44.87 6.61l7.43-13.37c3.9-1.46 19.62-6.9 37.51-7.52 17.89.61 33.61 6.06 37.51 7.52l7.43 13.37c-13.92-3.66-29.11-6.24-44.87-6.61-.02 0-.04 0-.07 0Zm0-20.05s-.06 0-.1 0c-21.63.72-39.75 7.99-40.51 8.29-.61.25-1.12.7-1.44 1.27l-10.72 19.3C27.99 40.07 1.62 57.95 1.25 58.21c-1.07.73-1.51 2.08-1.1 3.31 1.22 3.57 2.94 7.38 5.12 11.32 1.44 2.62 3.12 5.35 4.98 8.11 8.82 13.12 19.05 23.04 19.48 23.46.42.4.94.67 1.51.77 14.48 2.49 31.17 1.91 37.66 1.55.86 5.2 2.73 10.78 6.28 16.31-.28 2.81-.49 9.7 3.4 13.79 3.31 3.48 7.63 3.39 10.48 3.34.44 0 .99-.02 1.4 0 .34 1.08.76 3.12 1.09 4.69.16.75.31 1.47.46 2.16-3.22 1.7-6.52 3.1-9.85 3.45-10.96 1.15-12.65-2.79-12.65-2.79 0 0-1.3 10.63 15.58 11.25 3.58.13 7.23-.57 10.69-1.77.61.7 1.32 1.22 2.15 1.53 2.98 1.12 6.19.13 8.77-.66.66-.2 1.6-.49 2.16-.59.19.18.4.4.62.62 1.7 1.74 4.28 4.36 8.02 5 .16.03.32.04.48.04s.32-.01.48-.04c3.74-.63 6.31-3.26 8.02-5 .22-.22.43-.44.62-.62.56.1 1.5.39 2.16.59 2.58.79 5.79 1.77 8.77.66.83-.31 1.53-.83 2.15-1.53 3.46 1.2 7.11 1.9 10.69 1.77 16.88-.63 15.58-11.25 15.58-11.25 0 0-1.68 3.94-12.65 2.79-3.33-.35-6.63-1.75-9.85-3.45.15-.7.3-1.42.46-2.16.33-1.57.75-3.61 1.09-4.69.41-.01.96 0 1.4 0 2.85.05 7.16.14 10.48-3.34 3.89-4.09 3.68-10.98 3.4-13.79 3.55-5.52 5.42-11.11 6.28-16.31 6.5.36 23.19.94 37.67-1.55.57-.1 1.1-.37 1.51-.77.43-.42 10.66-10.33 19.48-23.46 1.87-2.76 3.54-5.49 4.98-8.11 2.18-3.93 3.9-7.74 5.12-11.32.42-1.22-.03-2.58-1.1-3.31-.37-.26-26.74-18.14-63.98-29.35l-10.72-19.3c-.32-.58-.83-1.02-1.44-1.27-.76-.31-18.88-7.58-40.51-8.29-.03 0-.06 0-.1 0Zm0 157.26c-1.69-.49-3.17-2-4.38-3.24-.51-.52-.99-1.01-1.47-1.41-1.99-1.66-4.56-.89-7.06-.12 7.69-5.15 11.92-11.74 7.09-13.19-4.4-1.32-9.47 1.55-14.89 4.72-.02-.12-.05-.24-.07-.35-1.02-4.92-1.53-7.14-3.08-8.28-1.46-1.07-3.26-1.04-5.17-1-2.71.05-4.74-.03-6.19-1.55-2.32-2.43-2.02-8.23-1.74-10.06.11-.72-.05-1.46-.46-2.07-10.57-15.61-5.18-32.61-4.06-35.71 10.47-3.21 24.41-6.12 41.48-6.66 17.07.54 31.02 3.45 41.48 6.66 1.13 3.1 6.51 20.1-4.06 35.71-.41.61-.57 1.35-.46 2.07.28 1.83.58 7.63-1.74 10.06-1.45 1.52-3.48 1.6-6.19 1.55-1.91-.04-3.71-.07-5.17 1-1.55 1.14-2.07 3.36-3.08 8.28-.02.11-.05.23-.07.35-5.42-3.17-10.49-6.04-14.89-4.72-4.83 1.45-.61 8.04 7.09 13.19-2.49-.76-5.07-1.54-7.06.12-.48.4-.96.89-1.47 1.41-1.21 1.23-2.69 2.74-4.38 3.24Zm0-84.69s-.06 0-.09 0c-42.51 1.31-66.01 16.5-66.99 17.15-1.33.88-1.7 2.66-.82 3.99.88 1.33 2.66 1.7 3.99.83.11-.07 5.54-3.56 15.71-7.28-.84 3.35-1.65 8.15-1.45 13.71-6.31.33-21.86.83-35.23-1.34-.79-.79-2.28-2.32-4.18-4.39.58.12 1.21.07 1.8-.26l15.41-8.68c1.78-1.01 1.76-3.58-.05-4.55l-14.55-7.81c-.84-.45-1.77-.39-2.5.03-.73.41-1.27 1.18-1.32 2.13l-.86 16.49c0 .14.02.27.03.4-3.51-3.98-7.87-9.3-11.87-15.25-.02-.03-.04-.06-.06-.09 8.9-6.29 47.33-30.99 103.01-32.72 55.68 1.73 94.11 26.44 103.01 32.72-.02.03-.04.06-.06.09-4 5.95-8.36 11.27-11.87 15.25.01-.13.04-.26.03-.4l-.86-16.49c-.05-.95-.59-1.71-1.32-2.13-.73-.41-1.66-.48-2.5-.03l-14.55 7.81c-1.81.97-1.83 3.55-.05 4.55l15.41 8.68c.59.33 1.22.39 1.8.26-1.9 2.08-3.39 3.6-4.18 4.39-13.37 2.17-28.92 1.67-35.23 1.34.2-5.55-.61-10.36-1.45-13.71 10.16 3.73 15.6 7.21 15.71 7.28 1.33.87 3.12.5 3.99-.83.87-1.33.51-3.12-.82-3.99-.98-.65-24.48-15.83-66.99-17.15-.03 0-.06 0-.09 0Zm-.13-36.89c-57.77 1.76-97.02 26.49-107.71 34.04-1.51-2.76-2.78-5.43-3.77-7.98 9.83-6.27 57.26-34.66 111.61-35.93 54.35 1.27 101.78 29.66 111.61 35.93-.99 2.54-2.26 5.22-3.77 7.98-10.68-7.56-49.93-32.28-107.71-34.04h-.27Z" fill="#1a243a" data-uid="o_f9dg4j457_19"></path><path class="cls-7" d="m117.99 48.96c-.84 0-1.68.4-2.19 1.21l-8.84 13.94c-1.1 1.73.15 3.99 2.19 3.99h17.69c2.05 0 3.29-2.26 2.19-3.99l-8.84-13.94c-.51-.8-1.35-1.21-2.19-1.21Z" fill="#1a243a" data-uid="o_f9dg4j457_20"></path><path class="cls-7" d="m75.84 55.65c-.81.22-1.52.83-1.81 1.73l-4.92 15.76c-.61 1.96 1.18 3.82 3.15 3.28l17.08-4.59c1.98-.53 2.59-3.04 1.08-4.42l-12.16-11.17c-.7-.64-1.62-.81-2.43-.6Z" fill="#1a243a" data-uid="o_f9dg4j457_21"></path><path class="cls-7" d="m160.15 55.65c.81.22 1.52.83 1.81 1.73l4.92 15.76c.61 1.96-1.18 3.82-3.15 3.28l-17.08-4.59c-1.98-.53-2.59-3.04-1.08-4.42l12.16-11.17c.7-.64 1.62-.81 2.43-.6Z" fill="#1a243a" data-uid="o_f9dg4j457_22"></path><path class="cls-7" d="m99.1 68.71c.83-.15 1.59-.69 1.95-1.57l6.3-15.26c.78-1.89-.83-3.91-2.85-3.55l-17.42 3.06c-2.02.35-2.85 2.8-1.47 4.31l11.12 12.2c.64.7 1.54.95 2.37.81Z" fill="#1a243a" data-uid="o_f9dg4j457_23"></path><path class="cls-7" d="m136.89 68.71c-.83-.15-1.59-.69-1.95-1.57l-6.3-15.26c-.78-1.89.83-3.91 2.85-3.55l17.42 3.06c2.02.35 2.85 2.8 1.47 4.31l-11.12 12.2c-.64.7-1.54.95-2.37.81Z" fill="#1a243a" data-uid="o_f9dg4j457_24"></path><path class="cls-7" d="m60.99 59.41l-16.23 7.02c-1.88.81-2.12 3.38-.43 4.53l13.65 9.28c.79.54 1.72.57 2.49.24.77-.33 1.39-1.04 1.53-1.98l2.58-16.31c.32-2.02-1.72-3.6-3.6-2.79Z" fill="#1a243a" data-uid="o_f9dg4j457_25"></path><path class="cls-7" d="m175 59.41l16.23 7.02c1.88.81 2.12 3.38.43 4.53l-13.65 9.28c-.79.54-1.72.57-2.49.24-.77-.33-1.39-1.04-1.53-1.98l-2.58-16.31c-.32-2.02 1.72-3.6 3.6-2.79Z" fill="#1a243a" data-uid="o_f9dg4j457_26"></path><path class="cls-3" d="m117.99 86.92c-3.67-.03-7.15.06-10.45.25.03-.39-.08-.88-.38-1.48-1.37-2.67-5.48-4.75-8.22-4.28-1.9.32-7.55 4.57-11.72 8.42-5.89 1.22-10.2 2.56-12.66 3.39.57-4.11 1.55-7.1 1.95-8.23 10.47-3.21 24.41-6.12 41.48-6.66 17.08.54 31.02 3.45 41.48 6.66.4 1.13 1.38 4.12 1.95 8.23-2.46-.83-6.77-2.17-12.66-3.39-4.18-3.85-9.82-8.1-11.72-8.42-2.74-.47-6.84 1.62-8.22 4.28-.3.6-.42 1.08-.38 1.48-3.3-.2-6.78-.29-10.45-.25Z" fill="#d3c2a9" data-uid="o_f9dg4j457_27"></path><path class="cls-3" d="m104.65 140.17c-2.35.96-4.82 2.38-7.36 3.85-.02-.12-.05-.24-.07-.35-1.03-4.92-1.53-7.14-3.09-8.29-1.45-1.07-3.25-1.04-5.17-.99-2.7.05-4.73-.03-6.19-1.56-1.4-1.48-1.85-4.18-1.92-6.49 1.25 2.27 4.25 5.34 11.32 4.73 11.01-.97 11.01.76 11.59 2.49.29.88.63 3.87.89 6.59Z" fill="#d3c2a9" data-uid="o_f9dg4j457_28"></path><path class="cls-3" d="m131.34 140.17c2.35.96 4.82 2.38 7.36 3.85.02-.12.05-.24.07-.35 1.03-4.92 1.53-7.14 3.09-8.29 1.45-1.07 3.25-1.04 5.17-.99 2.7.05 4.73-.03 6.19-1.56 1.4-1.48 1.85-4.18 1.92-6.49-1.25 2.27-4.25 5.34-11.32 4.73-11.01-.97-11.01.76-11.59 2.49-.29.88-.63 3.87-.89 6.59Z" fill="#d3c2a9" data-uid="o_f9dg4j457_29"></path><path class="cls-6" d="m69.79 87.26c-.7 2.83-1.4 6.67-1.48 11.12-6.19.28-20.91.59-21.82-2.6-1.08-3.8 6.83-7.58 7.77-8.01-2.02 1.1-3.15 1.82-3.35 1.95-1.33.88-1.7 2.67-.82 3.99.88 1.33 2.67 1.7 3.99.83.12-.08 5.54-3.57 15.71-7.29Z" fill="#ba2d1a" data-uid="o_f9dg4j457_30"></path><path class="cls-6" d="m166.19 87.26c.7 2.83 1.4 6.67 1.48 11.12 6.19.28 20.91.59 21.82-2.6 1.08-3.8-6.83-7.58-7.77-8.01 2.02 1.1 3.15 1.82 3.35 1.95 1.33.88 1.7 2.67.82 3.99-.88 1.33-2.67 1.7-3.99.83-.12-.08-5.54-3.57-15.71-7.29Z" fill="#ba2d1a" data-uid="o_f9dg4j457_31"></path><path class="cls-1" d="m117.99 5.77c-17.89.61-33.61 6.06-37.51 7.52l-2.23 4.01c5.9-2.09 21.82-7.12 39.74-7.73 17.92.61 33.84 5.65 39.74 7.73l-2.23-4.01c-3.9-1.46-19.62-6.9-37.51-7.52Z" fill="#ff7e69" data-uid="o_f9dg4j457_32"></path></svg></g><path text="WongJingGit" fill="#f34a23" space="preserve" text-anchor="middle" offset="0.5" font-scale="contain" font-size="54" font-family="Dela Gothic One" transform="matrix(0.9890252670911103, 0, 0, 0.9890252670911103, 261.3744293410241, 228.80929833985658)" data-fl-textpath="" font-weight="400" font-style="normal" path="M-186.5358997328015 3.9985631233664094C-145.48082439418175 -184.68008098603505 122.68743366871763 -191.6681789160129 172.47763141980965 3.125050882119183" letter-spacing="0" data-uid="o_f9dg4j457_33" d="M-188.079-88.947L-165.336-79.009L-184.218-94.81L-176.974-105.808L-148.213-78.208L-157.333-64.362L-177.616-73.327L-161.701-57.731L-170.43-44.477L-207.149-59.993L-199.9-71L-178.235-60.024L-196.011-76.904L-188.079-88.947ZM-127.986-96.056Q-134.992-90.03 -141.047-90.415Q-147.11-90.793 -151.615-96.032L-151.615-96.032Q-156.017-101.149 -155.464-107.178Q-154.919-113.2 -147.914-119.225L-147.914-119.225Q-143.206-123.274 -138.719-124.468Q-134.219-125.662 -130.466-124.365Q-126.727-123.07 -123.943-119.833L-123.943-119.833Q-119.398-114.548 -120.148-108.35Q-120.905-102.146 -127.986-96.056L-127.986-96.056ZM-133.813-103.152Q-131.152-105.441 -130.929-107.835Q-130.713-110.237 -132.546-112.368L-132.546-112.368Q-134.267-114.369 -136.687-114.53Q-139.107-114.691 -141.769-112.402L-141.769-112.402Q-144.43-110.113 -144.569-107.791Q-144.708-105.468 -142.948-103.421L-142.948-103.421Q-141.115-101.291 -138.791-101.073Q-136.474-100.864 -133.813-103.152L-133.813-103.152ZM-81.615-126.258L-92.331-120.533Q-95.791-127.687 -98.943-133.587L-98.943-133.587Q-100.065-135.686 -101.748-136.375Q-103.435-137.072 -105.005-136.233L-105.005-136.233Q-106.575-135.394 -106.92-133.407Q-107.268-131.407 -106.157-128.883L-106.157-128.883Q-104.318-125.206 -103.507-123.689L-103.507-123.689Q-101.773-120.443 -99.52-116.692L-99.52-116.692L-110.906-110.608Q-114.193-117.673 -117.45-123.768L-117.45-123.768Q-120.706-129.862 -124.798-136.61L-124.798-136.61Q-121.583-138.147 -119.916-139.037L-119.916-139.037Q-118.152-139.98 -115.176-141.751L-115.176-141.751L-110.063-135.492Q-110.996-139.891 -109.648-142.97Q-108.286-146.045 -105.19-147.699L-105.19-147.699Q-102.332-149.225 -99.568-149.081Q-96.795-148.941 -94.583-147.368Q-92.362-145.8 -90.938-143.136L-90.938-143.136L-87.272-136.274Q-83.889-129.941 -81.615-126.258L-81.615-126.258ZM-60.82-157.345L-61.14-163.369L-51.17-166.222Q-48.994-157.64 -44.507-141.959L-44.507-141.959Q-42.738-135.777 -44.08-131.128Q-45.413-126.482 -48.956-123.523Q-52.492-120.577 -57.472-119.152L-57.472-119.152Q-62.404-117.74 -66.707-118.058Q-71.008-118.367 -73.719-120.17L-73.719-120.17L-73.658-128.79Q-70.389-127.978 -67.698-127.989Q-65.007-128 -62.306-128.773L-62.306-128.773Q-53.48-131.299 -55.621-138.778L-55.621-138.778Q-55.931-139.865 -56.018-140.35L-56.018-140.35Q-56.106-140.657 -56.226-141.185Q-56.346-141.712 -56.643-142.532L-56.643-142.532Q-57.176-134.401 -65.742-131.95L-65.742-131.95Q-69.223-130.954 -72.477-132.04Q-75.744-133.134 -78.157-135.896Q-80.58-138.656 -81.681-142.502L-81.681-142.502Q-82.809-146.443 -82.243-150.173Q-81.687-153.9 -79.536-156.596Q-77.382-159.282 -74.008-160.248L-74.008-160.248Q-65.24-162.757 -60.82-157.345L-60.82-157.345ZM-62.717-141.803Q-61.524-142.144 -60.383-143.063Q-59.24-143.973 -58.656-145.461Q-58.073-146.949 -58.593-148.766L-58.593-148.766Q-59.515-151.987 -61.36-152.946Q-63.205-153.905 -66.061-153.088L-66.061-153.088Q-68.551-152.376 -69.536-150.294Q-70.515-148.225 -69.755-145.572L-69.755-145.572Q-69.073-143.187 -67.063-142.161Q-65.053-141.134 -62.717-141.803L-62.717-141.803ZM-10.95-179.632L 2.805-180.286L 3.711-161.247Q 4.19-151.159 -0.761-145.597Q-5.722-140.035 -16.99-139.499L-16.99-139.499Q-23.462-139.191 -29.026-140.819Q-34.589-142.446 -38.998-145.26L-38.998-145.26Q-38.128-148.655 -37.636-151.762Q-37.133-154.87 -36.977-158.551L-36.977-158.551Q-31.211-154.34 -26.434-152.836Q-21.667-151.33 -17.402-151.533L-17.402-151.533Q-12.977-151.744 -11.184-153.831Q-9.391-155.919 -9.572-160.776L-9.572-160.776L-9.767-164.871Q-10.183-173.611 -10.95-179.632L-10.95-179.632ZM 20.286-171.151Q 16.903-171.579  15.485-173.442Q 14.059-175.316  14.398-177.994L 14.398-177.994Q 14.73-180.614  16.584-182.123Q 18.428-183.633  21.811-183.205L 21.811-183.205Q 25.026-182.798  26.511-180.836Q 28.008-178.883  27.682-176.313L 27.682-176.313Q 27.343-173.635  25.476-172.178Q 23.599-170.732  20.286-171.151L 20.286-171.151ZM 22.712-137.913L 9.963-139.527Q 11.431-148.1  12.143-153.726L 12.143-153.726Q 12.991-160.422  13.615-168.78L 13.615-168.78L 26.473-167.153Q 25.037-159.23  24.148-152.206L 24.148-152.206Q 23.402-146.313  22.712-137.913L 22.712-137.913ZM 59.734-128.639L 48.041-131.939Q 50.506-139.494  52.323-145.932L 52.323-145.932Q 52.969-148.223  52.233-149.885Q 51.5-151.557  49.787-152.041L 49.787-152.041Q 48.074-152.524  46.448-151.331Q 44.811-150.13  43.862-147.541L 43.862-147.541Q 42.639-143.615  42.172-141.96L 42.172-141.96Q 41.173-138.418  40.197-134.153L 40.197-134.153L 27.773-137.659Q 30.3-145.03  32.177-151.68L 32.177-151.68Q 34.054-158.33  35.78-166.031L 35.78-166.031Q 39.163-164.91  40.982-164.397L 40.982-164.397Q 42.907-163.853  46.28-163.068L 46.28-163.068L 45.627-155.012Q 48.004-158.83  51.109-160.115Q 54.222-161.387  57.6-160.434L 57.6-160.434Q 60.718-159.554  62.611-157.534Q 64.513-155.511  65.017-152.844Q 65.531-150.174  64.711-147.267L 64.711-147.267L 62.598-139.78Q 60.648-132.87  59.734-128.639L 59.734-128.639ZM 96.299-136.716L 100.243-141.281L 109.408-136.43Q 105.029-128.734  97.398-114.319L 97.398-114.319Q 94.39-108.637  90.201-106.215Q 86.02-103.789  81.415-104.111Q 76.824-104.437  72.246-106.86L 72.246-106.86Q 67.712-109.26  64.83-112.472Q 61.943-115.675  61.238-118.854L 61.238-118.854L 67.255-125.026Q 69.05-122.175  70.997-120.318Q 72.945-118.461  75.428-117.147L 75.428-117.147Q 83.542-112.852  87.181-119.728L 87.181-119.728Q 87.71-120.726  87.984-121.136L 87.984-121.136Q 88.133-121.419  88.412-121.882Q 88.692-122.345  89.046-123.142L 89.046-123.142Q 83.027-117.65  75.152-121.819L 75.152-121.819Q 71.953-123.512  70.359-126.551Q 68.761-129.603  68.936-133.267Q 69.101-136.936  70.973-140.471L 70.973-140.471Q 72.891-144.095  75.883-146.392Q 78.867-148.693  82.286-149.146Q 85.7-149.59  88.803-147.948L 88.803-147.948Q 96.863-143.682  96.299-136.716L 96.299-136.716ZM 84.161-126.825Q 85.257-126.245  86.717-126.118Q 88.172-125.981  89.624-126.65Q 91.075-127.318  91.959-128.989L 91.959-128.989Q 93.526-131.949  92.861-133.92Q 92.195-135.89  89.571-137.279L 89.571-137.279Q 87.281-138.491  85.129-137.673Q 82.989-136.86  81.698-134.42L 81.698-134.42Q 80.538-132.228  81.276-130.095Q 82.014-127.962  84.161-126.825L 84.161-126.825ZM 125.279-103.356L 131.172-109.824L 148.219-94.295L 133.161-77.765L 126.13-84.17L 131.733-91.998Q 127.081-89.297  122.329-90.257Q 117.583-91.226  113.155-95.259L 113.155-95.259Q 109.119-98.936  107.628-103.581Q 106.13-108.233  107.406-113.212Q 108.683-118.177  112.757-122.65L 112.757-122.65Q 119.269-129.798  127.32-130.053Q 135.378-130.315  144.396-122.099L 144.396-122.099Q 149.549-117.405  151.946-112.151Q 154.35-106.89  153.908-100.867L 153.908-100.867Q 151.277-101.587  143.538-103.591L 143.538-103.591L 142.035-103.945Q 141.89-106.919  140.52-109.587Q 139.156-112.263  136.842-114.371L 136.842-114.371Q 133.013-117.86  129.297-117.552Q 125.581-117.244  122.894-114.295L 122.894-114.295Q 119.984-111.101  120.218-107.304Q 120.458-103.514  124.605-99.736L 124.605-99.736Q 126.402-98.099  128.573-97.068Q 130.738-96.043  133.063-96.265L 133.063-96.265L 125.279-103.356ZM 165.527-87.232Q 163.488-89.965  163.846-92.278Q 164.207-94.605  166.371-96.219L 166.371-96.219Q 168.487-97.798  170.86-97.51Q 173.228-97.229  175.266-94.496L 175.266-94.496Q 177.203-91.899  176.821-89.468Q 176.452-87.035  174.376-85.486L 174.376-85.486Q 172.212-83.872  169.867-84.206Q 167.524-84.554  165.527-87.232L 165.527-87.232ZM 143.273-62.425L 135.59-72.725Q 142.783-77.616  147.328-81.006L 147.328-81.006Q 152.739-85.042  159.191-90.391L 159.191-90.391L 166.94-80.002Q 160.238-75.54  154.562-71.307L 154.562-71.307Q 149.801-67.756  143.273-62.425L 143.273-62.425ZM 183.88-51.648L 175.567-46.927Q 173.391-51.407  171.506-55.051L 171.506-55.051L 166.507-52.27Q 163.968-50.828  163.169-48.914Q 162.356-47.003  163.956-44.186L 163.956-44.186Q 164.574-43.099  165.323-42.225L 165.323-42.225Q 163.475-41.429  161.693-40.416L 161.693-40.416Q 160.84-39.932  157.895-38.133L 157.895-38.133Q 156.35-39.982  155.455-41.336Q 154.559-42.69  153.275-44.951L 153.275-44.951Q 150.159-50.438  151.518-54.223Q 152.876-58.007  157.624-60.703L 157.624-60.703L 165.579-65.163Q 164.229-67.318  162.689-69.605L 162.689-69.605L 171.002-74.326Q 172.389-71.883  174.895-71.075Q 177.406-70.258  179.745-71.161L 179.745-71.161L 186.999-58.387Q 182.354-58.912  178.735-60.709L 178.735-60.709L 183.88-51.648Z" style=""></path><path text="QA Engineer" fill="#f34a23" space="preserve" text-anchor="middle" offset="0.5" font-scale="contain" font-size="44" font-family="Roboto Slab" transform="matrix(1.0787422038417358, 0, 0, 1.1083536383327186, 253.6893344990998, 298.1653912618917)" font-weight="400" font-style="normal" path="M-187.2999559866063 1.9570318310571224C-149.19689531112456 187.6227677128755 150.33955224827668 190.62809181223713 190.26044397906043 4.08884368917154" letter-spacing="15" data-fl-textpath="" data-uid="o_f9dg4j457_34" d="M-142.54 63.472L-142.924 63.724Q-146.404 66.004 -150.131 66.593Q-153.852 67.19 -157.127 66.024L-157.127 66.024L-157.397 73.768L-161.144 72.757L-160.8 64.031Q-161.671 63.322 -162.463 62.478Q-163.246 61.629 -163.893 60.642L-163.893 60.642Q-167.214 55.573 -165.513 49.939Q-163.812 44.306 -158.099 40.563L-158.099 40.563L-157.715 40.311Q-152.018 36.579 -146.158 37.258Q-140.297 37.937 -136.976 43.006L-136.976 43.006Q-133.562 48.217 -135.202 53.979Q-136.843 59.74 -142.54 63.472L-142.54 63.472ZM-145.242 60.186L-144.824 59.912Q-140.257 56.92 -138.81 52.851Q-137.355 48.778 -139.887 44.913L-139.887 44.913Q-142.315 41.208 -146.568 41.029Q-150.821 40.851 -155.363 43.827L-155.363 43.827L-155.781 44.101Q-160.382 47.115 -161.9 51.075Q-163.427 55.04 -160.999 58.746L-160.999 58.746Q-158.434 62.66 -154.143 62.933Q-149.86 63.211 -145.242 60.186L-145.242 60.186ZM-143.986 85.721L-142.22 83.665L-140.252 84.934L-113.545 70.634L-110.792 72.999L-121.053 101.427L-119.517 103.168L-121.283 105.224L-128.095 99.372L-126.329 97.316L-124.271 98.543L-122.087 92.839L-131.592 84.675L-136.947 87.655L-135.424 89.504L-137.19 91.559L-143.986 85.721ZM-115.779 75.873L-128.285 82.835L-120.753 89.306L-115.68 75.958L-115.779 75.873ZM-60.102 134.195L-82.996 126.202L-82.103 123.643L-78.601 124.23L-70.479 100.967L-73.586 99.247L-72.686 96.67L-50.018 104.584L-52.496 111.684L-55.923 110.487L-54.863 106.419L-66.485 102.362L-69.821 111.916L-58.52 115.862L-59.618 119.005L-70.919 115.06L-74.607 125.625L-62.74 129.768L-61.038 125.924L-57.629 127.114L-60.102 134.195ZM-42.015 138.61L-41.638 135.926L-38.089 135.819L-35.779 119.37L-39.161 118.289L-38.782 115.586L-31.573 116.598L-31.757 120.066Q-30.352 118.405 -28.476 117.629Q-26.591 116.863 -24.383 117.173L-24.383 117.173Q-20.659 117.696 -18.927 120.171Q-17.193 122.636 -17.832 127.191L-17.832 127.191L-19.412 138.441L-16.019 139.523L-16.396 142.207L-27.527 140.644L-27.15 137.96L-23.601 137.853L-22.032 126.682Q-21.605 123.642 -22.624 122.197Q-23.653 120.749 -26.119 120.403L-26.119 120.403Q-27.921 120.15 -29.44 120.826Q-30.958 121.501 -32.003 122.899L-32.003 122.899L-33.9 136.407L-30.507 137.489L-30.884 140.173L-42.015 138.61ZM 1.064 132.114L 1.046 131.664Q 0.815 126.059  3.122 122.521Q 5.428 118.983  9.745 118.806L 9.745 118.806Q 11.933 118.716  13.627 119.507Q 15.311 120.298  16.497 121.891L 16.497 121.891L 16.757 118.947L 20.324 118.801L 21.267 141.731Q 21.452 146.238  19.051 148.929Q 16.639 151.62  12.003 151.811L 12.003 151.811Q 10.335 151.879  8.357 151.5Q 6.39 151.111  4.869 150.383L 4.869 150.383L 5.832 147.05Q 7.037 147.631  8.662 147.965Q 10.288 148.308  11.817 148.245L 11.817 148.245Q 14.654 148.129  15.908 146.486Q 17.161 144.843  17.04 141.905L 17.04 141.905L 16.95 139.697Q 15.871 141.203  14.313 142.017Q 12.755 142.832  10.697 142.917L 10.697 142.917Q 6.42 143.093  3.845 140.106Q 1.27 137.109  1.064 132.114L 1.064 132.114ZM 5.282 131.49L 5.301 131.939Q 5.445 135.436  7.011 137.504Q 8.577 139.561  11.604 139.437L 11.604 139.437Q 13.513 139.358  14.766 138.436Q 16.019 137.513  16.793 135.89L 16.793 135.89L 16.353 125.199Q 15.473 123.754  14.128 122.939Q 12.784 122.123  10.935 122.199L 10.935 122.199Q 7.908 122.324  6.514 124.924Q 5.119 127.513  5.282 131.49L 5.282 131.49ZM 41.206 139.391L 40.683 136.732L 44.002 135.468L 40.795 119.17L 37.245 119.257L 36.718 116.578L 44.313 115.084L 48.162 134.649L 51.712 134.562L 52.235 137.221L 41.206 139.391ZM 42.33 105.007L 43.164 109.246L 39.004 110.065L 38.17 105.826L 42.33 105.007ZM 69.349 132.967L 68.381 130.436L 71.436 128.626L 65.505 113.111L 62.021 113.8L 61.047 111.25L 67.847 108.651L 69.362 111.775Q 69.789 109.642  71.056 108.055Q 72.335 106.474  74.418 105.678L 74.418 105.678Q 77.93 104.335  80.644 105.664Q 83.354 106.983  84.996 111.28L 84.996 111.28L 89.053 121.891L 92.546 121.198L 93.513 123.729L 83.014 127.743L 82.047 125.212L 85.102 123.401L 81.074 112.865Q 79.977 109.998  78.386 109.225Q 76.786 108.455  74.46 109.345L 74.46 109.345Q 72.76 109.994  71.758 111.32Q 70.755 112.645  70.517 114.374L 70.517 114.374L 75.387 127.115L 78.88 126.422L 79.848 128.954L 69.349 132.967ZM 118.496 109.958L 118.496 109.958Q 114.426 112.614  110.257 111.477Q 106.083 110.331  103.269 106.018L 103.269 106.018L 102.75 105.222Q 100.04 101.068  100.716 96.687Q 101.384 92.311  104.767 90.104L 104.767 90.104Q 108.687 87.547  112.265 88.603Q 115.844 89.659  118.423 93.613L 118.423 93.613L 119.871 95.832L 107.241 104.072L 107.237 104.194Q 109.126 106.961  111.672 107.88Q 114.217 108.798  116.688 107.186L 116.688 107.186Q 118.48 106.017  119.512 104.615Q 120.535 103.219  120.933 101.67L 120.933 101.67L 123.818 103.072Q 123.441 104.763  122.172 106.569Q 120.9 108.39  118.496 109.958ZM 106.587 92.893L 106.587 92.893Q 104.803 94.057  104.53 96.384Q 104.252 98.703  105.439 101.164L 105.439 101.164L 105.541 101.228L 114.52 95.371L 114.214 94.902Q 112.853 92.817  110.813 92.142Q 108.781 91.461  106.587 92.893ZM 148.266 85.272L 148.266 85.272Q 144.889 88.767  140.572 88.586Q 136.247 88.398  132.544 84.819L 132.544 84.819L 131.861 84.159Q 128.295 80.712  127.979 76.29Q 127.656 71.876  130.463 68.971L 130.463 68.971Q 133.716 65.605  137.44 65.839Q 141.164 66.072  144.558 69.353L 144.558 69.353L 146.463 71.194L 135.983 82.038L 136.007 82.157Q 138.464 84.435  141.15 84.764Q 143.836 85.093  145.886 82.972L 145.886 82.972Q 147.373 81.433  148.067 79.837Q 148.755 78.248  148.798 76.649L 148.798 76.649L 151.922 77.374Q 151.93 79.106  151.095 81.15Q 150.261 83.208  148.266 85.272ZM 132.858 71.285L 132.858 71.285Q 131.378 72.816  131.63 75.146Q 131.874 77.468  133.58 79.603L 133.58 79.603L 133.694 79.644L 141.143 71.936L 140.741 71.546Q 138.95 69.816  136.811 69.612Q 134.679 69.401  132.858 71.285ZM 150.458 49.89L 148.124 52.566L 145.793 51.146L 149.586 44.92L 152.68 46.338Q 151.667 44.561  151.559 42.797Q 151.451 41.033  152.424 39.436L 152.424 39.436Q 152.684 39.009  153.023 38.607Q 153.359 38.191  153.581 37.998L 153.581 37.998L 156.646 40.522L 155.281 42.512Q 154.412 43.938  154.493 45.323Q 154.566 46.702  155.456 47.97L 155.456 47.97L 166.848 54.912L 169.182 52.235L 171.496 53.645L 165.647 63.244L 163.333 61.833L 164.642 58.532L 150.458 49.89Z"></path><g transform="matrix(1.1931336482884247, 0, 0, 1.1931336482884247, -47.3099349832763, -51.48718850857342)" fill="#1a243a" data-uid="o_f9dg4j457_35"><path transform="matrix(0.15623527765274048, 0, 0, 0.15623527765274048, 82.11294555664062, 256.7392578125)" data-type="circle" data-cx="50" data-cy="50" data-r="50" d="M50 50m-50 0a50 50 0 1 0 100 0a50 50 0 1 0 -100 0" fill="#1a243a" data-uid="o_f9dg4j457_36"></path><path transform="matrix(0.15623527765274048, 0, 0, 0.15623527765274048, 410.68927001953125, 256)" data-type="circle" data-cx="50" data-cy="50" data-r="50" d="M50 50m-50 0a50 50 0 1 0 100 0a50 50 0 1 0 -100 0" fill="#1a243a" data-uid="o_f9dg4j457_37"></path></g></svg>